<?xml version="1.0"?>
<svg xmlns="http://www.w3.org/2000/svg" xmlns:xlink="http://www.w3.org/1999/xlink" xmlns:svgjs="http://svgjs.com/svgjs" version="1.1" width="512" height="512" x="0" y="0" viewBox="0 0 512 512" style="enable-background:new 0 0 512 512" xml:space="preserve"><g><path xmlns="http://www.w3.org/2000/svg" d="m140 356c0 5.523438-4.476562 10-10 10s-10-4.476562-10-10 4.476562-10 10-10 10 4.476562 10 10zm0 0" fill="#303030" data-original="#000000" style=""/><path xmlns="http://www.w3.org/2000/svg" d="m240 140c-8.222656 0-15.875 2.496094-22.238281 6.769531-5.402344-15.449219-20.164063-26.769531-37.761719-26.769531-11.933594 0-22.652344 5.257812-29.988281 13.574219-7.738281-8.765625-18.53125-13.574219-30.011719-13.574219-11.9375 0-22.664062 5.265625-30 13.585938-7.335938-8.320313-18.0625-13.585938-30-13.585938-22.054688 0-40 17.945312-40 40v56.019531c-12.457031 9.375-20 24.199219-20 39.980469 0 53.289062 25.097656 103.8125 68 136 7.425781 5.570312 12 14.390625 12 24v86c0 5.523438 4.476562 10 10 10h160c5.523438 0 10-4.476562 10-10v-84.390625c6.507812-19.796875 11.496094-40.253906 14.839844-60.832031 3.425781-21.121094 5.160156-42.664063 5.160156-64.027344 0-12.933594 0-99.746094 0-112.75 0-22.097656-17.898438-40-40-40zm0 20c11.046875 0 20 8.953125 20 20v66c0 11.027344-8.972656 20-20 20s-20-8.972656-20-20c0-16.996094 0-50.429688 0-66 0-11.027344 8.972656-20 20-20zm-60-20c11.046875 0 20 8.953125 20 20v66c0 11.027344-8.972656 20-20 20s-20-8.972656-20-20v-66c0-11.027344 8.972656-20 20-20zm-60 0c11.046875 0 20 8.953125 20 20v46h-40v-46c0-11.027344 8.972656-20 20-20zm-60 0c11.027344 0 20 8.972656 20 20v46h-30c-3.371094 0-6.71875.347656-10 1.015625v-47.015625c0-11.027344 8.972656-20 20-20zm40 352v-46h140v46zm155.101562-138.425781c-6.445312 39.644531-15.101562 57.628906-15.101562 62.425781v10h-140v-10c0-15.492188-7.21875-30.414062-20-40-37.914062-28.445312-60-73.050781-60-120 0-16.253906 13.152344-30.011719 30-30.011719h88.996094c-4.644532 22.796875-24.851563 40.011719-48.996094 40.011719h-20c-5.523438 0-10 4.476562-10 10s4.476562 10 10 10h10c19.027344 0 35.527344 13.519531 39.230469 32.140625 1.070312 5.378906 6.304687 8.941406 11.761719 7.855469 5.414062-1.074219 8.933593-6.339844 7.855468-11.757813-2.746094-13.808593-10.183594-25.742187-20.441406-34.285156 13.082031-5.835937 24.070312-15.550781 31.453125-27.699219 7.339844 8.414063 18.125 13.746094 30.140625 13.746094 8.230469 0 15.886719-2.5 22.253906-6.78125 5.472656 15.578125 20.320313 26.78125 37.746094 26.78125 7.28125 0 14.113281-1.964844 20-5.382812v12.132812c0 20.292969-1.648438 40.761719-4.898438 60.824219zm0 0" fill="#303030" data-original="#000000" style=""/><path xmlns="http://www.w3.org/2000/svg" d="m160 70v-60c0-5.523438-4.476562-10-10-10s-10 4.476562-10 10v60c0 5.523438 4.476562 10 10 10s10-4.476562 10-10zm0 0" fill="#303030" data-original="#000000" style=""/><path xmlns="http://www.w3.org/2000/svg" d="m227.28125 82.722656 42.421875-42.433594c3.902344-3.90625 3.902344-10.234374-.003906-14.140624s-10.234375-3.90625-14.140625 0l-42.421875 42.429687c-3.902344 3.90625-3.902344 10.238281.003906 14.144531 3.90625 3.902344 10.234375 3.90625 14.140625 0zm0 0" fill="#303030" data-original="#000000" style=""/><path xmlns="http://www.w3.org/2000/svg" d="m92.722656 76.859375c3.90625-3.90625 3.902344-10.238281 0-14.140625l-42.433594-42.421875c-3.902343-3.902344-10.234374-3.902344-14.140624.003906-3.90625 3.902344-3.902344 10.234375 0 14.140625l42.429687 42.421875c3.90625 3.902344 10.238281 3.902344 14.144531-.003906zm0 0" fill="#303030" data-original="#000000" style=""/></g></svg>
