<?xml version="1.0"?>
<svg xmlns="http://www.w3.org/2000/svg" xmlns:xlink="http://www.w3.org/1999/xlink" xmlns:svgjs="http://svgjs.com/svgjs" version="1.1" width="512" height="512" x="0" y="0" viewBox="0 0 512 512" style="enable-background:new 0 0 512 512" xml:space="preserve" class=""><g><g xmlns="http://www.w3.org/2000/svg"><path d="m470.886 495.151-38.75-312c-.649-5.225-3.989-9.727-8.802-11.862-4.812-2.135-10.391-1.593-14.7 1.433l-38.326 26.896 10.244-40.979c.766-3.059.547-6.281-.625-9.209l-14.962-37.404 45.474-23.726c5.555-2.898 8.723-8.942 7.945-15.159l-7.5-60c-.938-7.508-7.32-13.141-14.884-13.141h-280c-7.564 0-13.946 5.633-14.884 13.14l-6.25 50c-.622 4.973 1.281 9.928 5.071 13.206l22.802 19.72-22.046 4.199c-6.393 1.218-11.271 6.418-12.077 12.875l-27.5 220c-.888 7.095 3.357 13.829 10.141 16.091l40.257 13.419-15.389 20.518-36.833 18.417c-4.5 2.25-7.572 6.605-8.182 11.601l-10 82c-.52 4.263.812 8.544 3.659 11.76 2.848 3.213 6.936 5.054 11.231 5.054h400c4.301 0 8.394-1.846 11.241-5.068s4.175-7.513 3.645-11.781zm-199.886-13.151v-27c0-8.284-6.716-15-15-15s-15 6.716-15 15v27h-168.06l6.974-57.187 32.794-16.397c2.083-1.041 3.895-2.553 5.292-4.416l30-40c2.893-3.857 3.756-8.87 2.317-13.473-1.438-4.603-5-8.232-9.574-9.758l-48.334-16.111 24.621-196.966 41.776-7.957c5.65-1.076 10.188-5.289 11.68-10.844 1.492-5.556-.323-11.475-4.674-15.237l-40.184-34.753 3.614-28.901h111.758v25c0 8.284 6.716 15 15 15s15-6.716 15-15v-25h111.758l4.565 36.521-48.262 25.18c-6.829 3.562-9.85 11.719-6.988 18.87l18.198 45.496-18.823 75.295c-1.52 6.075.896 12.455 6.059 16.001 5.162 3.548 11.984 3.513 17.109-.085l50.824-35.666 33.581 270.388z" fill="#646464" data-original="#000000" style="" class=""/><path d="m256 330c-8.284 0-15 6.716-15 15v40c0 8.284 6.716 15 15 15s15-6.716 15-15v-40c0-8.284-6.716-15-15-15z" fill="#646464" data-original="#000000" style="" class=""/><path d="m256 220c-8.284 0-15 6.716-15 15v40c0 8.284 6.716 15 15 15s15-6.716 15-15v-40c0-8.284-6.716-15-15-15z" fill="#646464" data-original="#000000" style="" class=""/><path d="m256 110c-8.284 0-15 6.716-15 15v40c0 8.284 6.716 15 15 15s15-6.716 15-15v-40c0-8.284-6.716-15-15-15z" fill="#646464" data-original="#000000" style="" class=""/></g></g></svg>
